<svg xmlns="http://www.w3.org/2000/svg" width="300" height="300" viewBox="0 0 300 300" version="1.1"><path d="M 210.066 29.125 C 203.198 32.557, 200.873 35.317, 189.169 53.931 L 182.837 64 149.169 63.962 L 115.500 63.923 108.578 52.712 C 104.771 46.545, 100.163 39.630, 98.339 37.345 C 94.908 33.047, 86.288 28, 82.380 28 C 78.794 28, 74.286 32.620, 72.056 38.579 C 70.113 43.772, 70 46.176, 70 82.168 L 70 120.262 66.750 119.661 C 64.962 119.331, 56.975 117.677, 49 115.987 C 27.736 111.479, 27.863 111.490, 25.250 113.955 C 22.464 116.583, 22.324 121.078, 24.953 123.457 C 26.692 125.031, 37.551 127.704, 63.750 133.008 L 70 134.273 70 139.493 L 70 144.713 63.250 145.392 C 38.933 147.838, 33.585 148.794, 31.783 151.020 C 29.400 153.962, 29.532 157.532, 32.118 160.118 C 34.023 162.023, 34.949 162.170, 41.368 161.584 C 48.483 160.934, 62.038 159.311, 67.250 158.486 L 70 158.050 70.011 174.275 C 70.022 190.820, 70.823 195.889, 74.576 203.148 C 79.069 211.839, 87.703 219.094, 97.428 222.350 C 101.733 223.791, 108.382 224, 150 224 C 202.880 224, 202.394 224.052, 212.735 217.263 C 218.983 213.161, 223.065 208.235, 226.766 200.336 C 229.412 194.689, 229.510 193.862, 229.808 174.750 C 229.978 163.887, 230.206 155, 230.315 155 C 230.424 155, 232.085 155.471, 234.007 156.048 C 245.203 159.406, 260.823 163.321, 262.808 163.267 C 267.736 163.133, 270.503 157.677, 268.008 153.014 C 266.894 150.934, 264.786 150.145, 250.500 146.468 C 229.609 141.090, 230 141.259, 230 137.602 C 230 134.367, 230.044 134.338, 236.750 133.146 C 274.343 126.466, 274.764 126.358, 276.555 122.893 C 277.880 120.332, 277.881 119.671, 276.566 117.127 C 274.576 113.280, 272.267 112.862, 262.643 114.609 C 249.464 117, 237.770 119.052, 233.750 119.679 L 230 120.263 230 81.169 C 230 44.167, 229.890 41.781, 227.944 36.579 C 225.827 30.921, 221.240 26, 218.083 26 C 217.113 26, 213.505 27.406, 210.066 29.125 M 189.315 96.007 C 182.270 98.845, 184.878 111, 192.531 111 C 195.737 111, 201 106.029, 201 103 C 201 100.343, 195.813 94.977, 193.327 95.063 C 192.322 95.098, 190.517 95.523, 189.315 96.007 M 134.892 104.354 C 122.895 109.290, 114.942 116.679, 109.685 127.777 C 106.677 134.127, 106.500 135.141, 106.500 146.052 C 106.500 157.390, 106.570 157.744, 110.259 165.210 C 114.814 174.426, 122.481 181.904, 132 186.416 C 138.092 189.303, 139.224 189.497, 150.052 189.498 C 161.388 189.500, 161.745 189.430, 169.197 185.747 C 201.185 169.938, 203.026 126.482, 172.500 107.779 C 165.627 103.568, 159.373 101.998, 149.572 102.024 C 142.423 102.042, 139.311 102.537, 134.892 104.354 M 141.951 115.303 C 123.083 120.637, 113.238 141.136, 121.040 158.841 C 123.772 165.040, 131.150 172.388, 137.299 175.033 C 144.336 178.061, 155.684 178.052, 162.746 175.014 C 168.906 172.364, 176.225 164.938, 179.300 158.217 C 182.348 151.557, 182.286 140.400, 179.164 133.408 C 176.353 127.114, 169.025 119.765, 162.843 117.041 C 156.866 114.407, 147.789 113.652, 141.951 115.303 M 76.419 235.349 C 76.135 236.091, 76.036 239.804, 76.201 243.599 L 76.500 250.500 81.481 250.814 C 84.220 250.987, 86.767 251.622, 87.140 252.226 C 87.813 253.315, 87.337 263.350, 86.499 265.750 C 85.681 268.092, 83.139 267.057, 82.816 264.250 C 82.550 261.931, 82.029 261.500, 79.500 261.500 C 76.530 261.500, 76.500 261.556, 76.500 267 L 76.500 272.500 84.628 272.788 C 90.589 273, 92.889 272.730, 93.255 271.777 C 93.530 271.062, 93.697 264.857, 93.627 257.989 L 93.500 245.500 88.250 245.198 C 83.429 244.920, 83 244.696, 83 242.448 C 83 240.183, 83.367 240, 87.917 240 C 92.958 240, 94.088 239.095, 93.221 235.750 C 92.836 234.269, 91.550 234, 84.852 234 C 79.132 234, 76.794 234.374, 76.419 235.349 M 98.868 234.210 C 98.427 235.178, 98.247 268.004, 98.669 270.308 C 99.100 272.658, 99.617 273.065, 101.842 272.808 C 104.803 272.465, 104.789 272.569, 104.937 249.750 C 104.996 240.688, 105.141 240, 107 240 C 108.912 240, 109.001 240.672, 109.015 255.250 C 109.024 263.637, 109.412 271.102, 109.878 271.837 C 110.345 272.573, 111.800 273.023, 113.113 272.837 L 115.500 272.500 115.500 253.500 L 115.500 234.500 107.250 234.210 C 102.713 234.050, 98.941 234.050, 98.868 234.210 M 120.460 235.243 C 120.181 235.971, 120.075 244.652, 120.226 254.534 L 120.500 272.500 122.887 272.837 C 124.200 273.023, 125.552 272.725, 125.891 272.176 C 126.231 271.626, 126.441 266.637, 126.357 261.088 C 126.208 251.107, 126.231 251, 128.569 251 C 130.889 251, 130.938 251.196, 131.216 261.750 L 131.500 272.500 134.126 272.804 C 136.668 273.099, 136.766 272.914, 137.196 266.961 C 137.441 263.579, 137.602 254.892, 137.555 247.656 L 137.469 234.500 129.219 234.209 C 123.082 233.993, 120.838 234.258, 120.460 235.243 M 142.228 253.237 C 142.480 271.064, 142.636 272.500, 144.356 272.831 C 147.403 273.416, 147.929 271.927, 148.364 261.476 L 148.780 251.500 152.375 251.191 C 157.129 250.781, 159 247.992, 159 241.313 C 159 234.858, 157.773 234, 148.544 234 L 141.957 234 142.228 253.237 M 164.285 235.750 C 163.042 238.521, 163.319 270.716, 164.597 271.996 C 165.255 272.654, 168.651 272.975, 173.083 272.797 L 180.472 272.500 181.103 268.600 C 182.038 262.821, 181.267 261, 177.883 261 C 175.509 261, 175 261.422, 175 263.393 C 175 265.890, 172.297 267.697, 170.801 266.201 C 170.325 265.725, 170.063 259.753, 170.218 252.930 C 170.466 242.014, 170.711 240.484, 172.260 240.187 C 173.544 239.941, 174.189 240.695, 174.646 242.978 C 175.178 245.638, 175.663 246.061, 177.886 245.803 C 180.325 245.520, 180.520 245.116, 180.800 239.750 L 181.100 234 173.085 234 C 166.418 234, 164.938 234.294, 164.285 235.750 M 185.957 238.750 C 185.643 273.198, 185.685 273.590, 189.644 272.832 C 191.293 272.516, 191.532 271.279, 191.784 261.738 C 192.046 251.824, 192.219 251, 194.034 251 C 195.390 251, 196.017 251.699, 196.056 253.250 C 196.087 254.488, 196.199 259.050, 196.306 263.388 C 196.510 271.666, 197.808 274.055, 201.364 272.691 C 202.799 272.140, 203 269.728, 203 253.031 L 203 234 194.500 234 L 186 234 185.957 238.750 M 208 236.890 C 208 239.210, 208.493 239.931, 210.250 240.180 C 212.452 240.493, 212.511 240.842, 213 256.500 L 213.500 272.500 216.250 272.816 L 219 273.133 219 256.633 L 219 240.133 221.750 239.816 C 223.932 239.565, 224.500 238.984, 224.500 237 C 224.500 234.559, 224.306 234.493, 216.250 234.210 L 208 233.919 208 236.890 M 126.345 241.543 C 125.632 243.400, 126.385 244.283, 129.026 244.686 C 130.544 244.918, 131 244.412, 131 242.494 C 131 240.654, 130.467 240, 128.969 240 C 127.851 240, 126.671 240.694, 126.345 241.543 M 149 242 C 149 243.333, 149.667 244, 151 244 C 152.333 244, 153 243.333, 153 242 C 153 240.667, 152.333 240, 151 240 C 149.667 240, 149 240.667, 149 242 M 192.667 240.667 C 191.175 242.159, 192.049 245, 194 245 C 195.467 245, 196 244.333, 196 242.500 C 196 240.147, 194.185 239.149, 192.667 240.667" stroke="none" fill="#fbe266" fill-rule="evenodd"/></svg>