<svg xmlns="http://www.w3.org/2000/svg" width="200" height="56" viewBox="0 0 200 56" version="1.1"><path d="M 36.152 8.316 C 35.571 9.017, 34.961 13.332, 34.797 17.904 L 34.500 26.216 29.684 25.647 C 25.515 25.155, 24.913 25.307, 25.197 26.782 C 25.419 27.940, 27.042 28.763, 30.262 29.351 C 32.868 29.827, 35 30.567, 35 30.995 C 35 31.423, 32.975 32.077, 30.500 32.448 C 24.406 33.362, 24.237 36, 30.273 36 L 34.545 36 34.545 40.106 C 34.545 43.357, 35.125 44.711, 37.328 46.606 C 39.924 48.838, 40.900 48.999, 51.806 48.985 C 58.238 48.976, 63.976 48.639, 64.558 48.235 C 66.993 46.544, 69 42.313, 69 38.873 L 69 35.190 73 35.727 C 75.664 36.084, 77 35.878, 77 35.110 C 77 34.046, 75.889 33.415, 70.500 31.423 C 68.917 30.838, 69.528 30.448, 73.430 29.553 C 81.153 27.782, 80.983 24.540, 73.241 25.956 L 69 26.731 69 18.800 C 69 6.483, 66.256 3.711, 61.240 10.962 L 58.500 14.924 51.466 14.962 C 44.697 14.999, 44.364 14.887, 42.663 12.007 C 40.398 8.172, 37.592 6.582, 36.152 8.316 M 83.567 17.200 C 83.342 17.915, 82.952 20.645, 82.700 23.266 C 82.191 28.564, 82.911 29.500, 87.500 29.500 C 90.464 29.500, 90.500 29.565, 90.500 34.917 C 90.500 40.411, 88.743 42.949, 87.700 38.962 C 87.299 37.427, 86.505 36.933, 84.823 37.171 C 82.819 37.455, 82.546 37.981, 82.834 41 C 83.018 42.925, 83.516 44.863, 83.941 45.307 C 84.367 45.751, 87.141 45.976, 90.107 45.807 L 95.500 45.500 95.785 35.250 C 96.096 24.072, 96.223 24.289, 89.750 24.948 C 86.852 25.242, 87.749 22.093, 90.750 21.436 C 95.626 20.367, 96.153 20.036, 95.814 18.253 C 95.551 16.868, 94.272 16.437, 89.728 16.200 C 85.671 15.988, 83.855 16.283, 83.567 17.200 M 99.457 17.250 C 99.172 17.993, 99.065 24.653, 99.220 32.050 C 99.484 44.740, 99.613 45.500, 101.500 45.500 C 103.377 45.500, 103.517 44.740, 103.781 33.177 C 103.990 24.033, 104.377 20.958, 105.281 21.258 C 106.110 21.532, 106.660 25.478, 107 33.581 C 107.465 44.667, 107.640 45.500, 109.500 45.500 C 111.408 45.500, 111.500 44.833, 111.500 31 L 111.500 16.500 105.738 16.200 C 101.602 15.984, 99.829 16.281, 99.457 17.250 M 115.710 16.623 C 114.681 17.652, 114.866 43.240, 115.914 44.896 C 116.400 45.663, 117.519 46.015, 118.399 45.677 C 119.668 45.190, 120 43.523, 120 37.638 C 120 31.961, 120.353 30.079, 121.500 29.638 C 122.747 29.160, 123.003 30.280, 123.015 36.281 C 123.032 44.177, 123.923 46.627, 126.427 45.667 C 127.845 45.122, 128.019 43.197, 127.778 30.771 L 127.500 16.500 121.960 16.206 C 118.913 16.045, 116.101 16.232, 115.710 16.623 M 131.599 19.250 C 131.329 21.038, 131.196 27.675, 131.304 34 C 131.488 44.768, 131.627 45.500, 133.500 45.500 C 135.303 45.500, 135.529 44.736, 135.792 37.750 C 136.040 31.173, 136.347 30, 137.820 30 C 141.622 30, 144 27.106, 144 22.478 C 144 17.330, 142.381 16, 136.111 16 C 132.343 16, 132.060 16.204, 131.599 19.250 M 148.464 17.250 C 147.736 19.174, 147.144 40.149, 147.730 43.250 C 148.220 45.842, 148.557 46, 153.590 46 C 159.391 46, 161.453 44.201, 160.813 39.698 C 160.378 36.644, 156.456 36.150, 155.696 39.053 C 155.383 40.253, 154.548 41.016, 153.816 40.772 C 151.768 40.089, 151.945 21.500, 154 21.500 C 154.825 21.500, 155.637 22.464, 155.805 23.642 C 156.030 25.214, 156.628 25.649, 158.055 25.275 C 159.608 24.869, 160 23.884, 160 20.383 L 160 16 154.469 16 C 150.962 16, 148.764 16.458, 148.464 17.250 M 164.457 17.250 C 164.172 17.993, 164.065 24.653, 164.220 32.050 C 164.484 44.740, 164.613 45.500, 166.500 45.500 C 168.290 45.500, 168.553 44.667, 169 37.579 C 169.310 32.667, 169.959 29.506, 170.708 29.259 C 171.573 28.974, 172 31.226, 172.208 37.181 C 172.473 44.736, 172.684 45.500, 174.500 45.500 C 176.408 45.500, 176.500 44.833, 176.500 31 L 176.500 16.500 170.738 16.200 C 166.602 15.984, 164.829 16.281, 164.457 17.250 M 181.250 16.656 C 179.173 17.505, 179.751 21, 181.969 21 C 183.806 21, 183.957 21.826, 184.219 33.250 C 184.483 44.740, 184.624 45.500, 186.500 45.500 C 188.376 45.500, 188.517 44.740, 188.781 33.250 C 189.046 21.681, 189.175 21, 191.100 21 C 192.643 21, 193.061 20.452, 192.820 18.750 C 192.541 16.788, 191.860 16.477, 187.500 16.323 C 184.750 16.225, 181.938 16.375, 181.250 16.656 M 120.667 21.667 C 119.467 22.866, 119.967 24.667, 121.500 24.667 C 122.325 24.667, 123 23.842, 123 22.833 C 123 20.985, 121.899 20.435, 120.667 21.667 M 136.459 22.067 C 135.539 23.556, 136.606 24.365, 138.520 23.631 C 139.404 23.292, 139.847 22.561, 139.504 22.007 C 138.694 20.696, 137.289 20.723, 136.459 22.067 M 169.667 21.667 C 168.467 22.866, 168.967 24.667, 170.500 24.667 C 171.325 24.667, 172 23.842, 172 22.833 C 172 20.985, 170.899 20.435, 169.667 21.667 M 59.694 22.639 C 58.895 23.438, 59.798 25, 61.059 25 C 61.577 25, 62 24.325, 62 23.500 C 62 21.954, 60.820 21.513, 59.694 22.639 M 48.357 23.992 C 43.778 25.840, 41.579 32.476, 44.030 37.055 C 45.494 39.792, 50.664 42.235, 53.300 41.437 C 62.062 38.782, 63.138 26.987, 54.881 24.108 C 51.233 22.837, 51.219 22.836, 48.357 23.992 M 46.655 27.829 C 44.458 30.256, 44.550 35.283, 46.829 37.345 C 47.835 38.255, 50.052 39, 51.756 39 C 57.585 39, 60.639 31.885, 56.797 27.256 C 55.196 25.326, 48.582 25.700, 46.655 27.829" stroke="none" fill="#8730db" fill-rule="evenodd"/></svg>